# xmcd CD database file
#
# Track frame offsets:
#	180
#	11967
#	28729
#	49397
#	65597
#	80553
#	92841
#	109081
#	120784
#	136450
#	151626
#	169925
#
# Disc length: 2623 seconds
#
# Revision: 0
# Processed by: cddbd v1.5.1PL0 Copyright (c) Steve Scherf et al.
# Submitted via: CDex 1.50beta10
#
DISCID=9b0a3d0c
DTITLE=Beavers Creek - Sold
DYEAR=2002
DGENRE=Country
TTITLE0=Sold
TTITLE1=You Better Think Twice
TTITLE2=Please Remember Me
TTITLE3=Liza Jane
TTITLE4=Down At The Twist And Shout
TTITLE5=Six Days On The Road
TTITLE6=Whippoorwill
TTITLE7=Dream
TTITLE8=Could This Eyes Lie
TTITLE9=Rock'n 'Roll Medley
TTITLE10=Lay Down Sally
TTITLE11=(Ghost) Riders In The Sky
EXTD=YEAR: 2002
EXTT0=
EXTT1=
EXTT2=
EXTT3=
EXTT4=
EXTT5=
EXTT6=
EXTT7=
EXTT8=
EXTT9=
EXTT10=
EXTT11=
PLAYORDER=
